<svg xmlns="http://www.w3.org/2000/svg" viewBox="0 0 32 32"><defs><style>.cls-1{fill:#eb2f06;}.cls-2{fill:#fcfafa;}</style></defs><title>Asset 3</title><g id="Layer_2" data-name="Layer 2"><g id="Layer_1-2" data-name="Layer 1"><path class="cls-1" d="M28,0H4A4,4,0,0,0,0,4V28a4,4,0,0,0,4,4H28a4,4,0,0,0,4-4V4A4,4,0,0,0,28,0ZM25.63,27.75h-5V17.61h-9.3V27.75h-5V4.25h5v9.21h9.3V4.25h5Z"/><polygon class="cls-2" points="20.66 13.46 11.36 13.46 11.36 4.25 6.38 4.25 6.38 27.75 11.36 27.75 11.36 17.61 20.66 17.61 20.66 27.75 25.63 27.75 25.63 4.25 20.66 4.25 20.66 13.46"/></g></g></svg>